<svg width="24" height="21" viewBox="0 0 24 21" fill="none" xmlns="http://www.w3.org/2000/svg">
<path d="M17.3571 0C15.1446 0 13.2075 0.971479 12 2.61358C10.7925 0.971479 8.85536 0 6.64286 0C4.88167 0.00202691 3.19319 0.717298 1.94784 1.98889C0.702493 3.26048 0.00198508 4.98455 0 6.78285C0 14.4409 11.1204 20.6396 11.5939 20.8955C11.7187 20.9641 11.8583 21 12 21C12.1417 21 12.2813 20.9641 12.4061 20.8955C12.8796 20.6396 24 14.4409 24 6.78285C23.998 4.98455 23.2975 3.26048 22.0522 1.98889C20.8068 0.717298 19.1183 0.00202691 17.3571 0ZM12 19.1233C10.0436 17.9592 1.71429 12.6566 1.71429 6.78285C1.71599 5.4487 2.23579 4.16969 3.15971 3.2263C4.08363 2.28291 5.33624 1.75215 6.64286 1.75041C8.72679 1.75041 10.4764 2.8838 11.2071 4.70423C11.2717 4.86476 11.3816 5.00205 11.5227 5.09868C11.6639 5.1953 11.83 5.24689 12 5.24689C12.17 5.24689 12.3361 5.1953 12.4772 5.09868C12.6184 5.00205 12.7283 4.86476 12.7929 4.70423C13.5236 2.88052 15.2732 1.75041 17.3571 1.75041C18.6638 1.75215 19.9164 2.28291 20.8403 3.2263C21.7642 4.16969 22.284 5.4487 22.2857 6.78285C22.2857 12.6478 13.9543 17.9581 12 19.1233Z" fill="#174D38"/>
</svg>
