<svg width="24" height="24" viewBox="0 0 24 24" fill="none" xmlns="http://www.w3.org/2000/svg">
<path d="M4.82126 24C4.22393 24 3.71548 23.7902 3.29593 23.3707C2.87637 22.9511 2.6666 22.4431 2.6666 21.8467V10.1533C2.6666 9.55778 2.87637 9.04978 3.29593 8.62933C3.71548 8.20978 4.22393 8 4.82126 8H6.6666V5.33333C6.6666 3.848 7.18437 2.588 8.21993 1.55333C9.2546 0.517778 10.5146 0 11.9999 0C13.4853 0 14.7457 0.517778 15.7813 1.55333C16.8168 2.58889 17.3342 3.84889 17.3333 5.33333V8H19.1799C19.7755 8 20.2835 8.20978 20.7039 8.62933C21.1235 9.04889 21.3333 9.55733 21.3333 10.1547V21.8467C21.3333 22.4422 21.1235 22.9502 20.7039 23.3707C20.2844 23.7902 19.7764 24 19.1799 24H4.82126ZM4.82126 22.6667H19.1799C19.419 22.6667 19.6155 22.5898 19.7693 22.436C19.923 22.2822 19.9999 22.0858 19.9999 21.8467V10.1533C19.9999 9.91422 19.923 9.71778 19.7693 9.564C19.6155 9.41022 19.419 9.33333 19.1799 9.33333H4.81993C4.58082 9.33333 4.38437 9.41022 4.2306 9.564C4.07682 9.71778 3.99993 9.91467 3.99993 10.1547V21.8467C3.99993 22.0858 4.07682 22.2822 4.2306 22.436C4.38437 22.5898 4.58126 22.6667 4.82126 22.6667ZM11.9999 18C12.5626 18 13.0364 17.8071 13.4213 17.4213C13.807 17.0364 13.9999 16.5627 13.9999 16C13.9999 15.4373 13.807 14.9636 13.4213 14.5787C13.0355 14.1938 12.5617 14.0009 11.9999 14C11.4382 13.9991 10.9644 14.192 10.5786 14.5787C10.1928 14.9636 9.99993 15.4373 9.99993 16C9.99993 16.5627 10.1928 17.0364 10.5786 17.4213C10.9635 17.8071 11.4373 18 11.9999 18ZM7.99993 8H15.9999V5.33333C15.9999 4.22222 15.611 3.27778 14.8333 2.5C14.0555 1.72222 13.111 1.33333 11.9999 1.33333C10.8888 1.33333 9.94437 1.72222 9.1666 2.5C8.38882 3.27778 7.99993 4.22222 7.99993 5.33333V8Z" fill="#1E1E1E"/>
</svg>
