<svg width="28" height="23" viewBox="0 0 28 23" fill="none" xmlns="http://www.w3.org/2000/svg">
<path d="M27.6578 12.3136L17.1582 22.663C16.9393 22.8788 16.6424 23 16.3328 23C16.0232 23 15.7263 22.8788 15.5074 22.663C15.2885 22.4472 15.1655 22.1546 15.1655 21.8494C15.1655 21.5443 15.2885 21.2516 15.5074 21.0358L24.0165 12.6499H1.16663C0.857219 12.6499 0.560483 12.5288 0.341698 12.3131C0.122913 12.0975 0 11.805 0 11.5C0 11.195 0.122913 10.9025 0.341698 10.6869C0.560483 10.4712 0.857219 10.3501 1.16663 10.3501H24.0165L15.5074 1.96415C15.2885 1.74838 15.1655 1.45573 15.1655 1.15058C15.1655 0.845424 15.2885 0.55277 15.5074 0.336996C15.7263 0.121221 16.0232 0 16.3328 0C16.6424 0 16.9393 0.121221 17.1582 0.336996L27.6578 10.6864C27.7663 10.7932 27.8524 10.92 27.9111 11.0596C27.9698 11.1992 28 11.3489 28 11.5C28 11.6511 27.9698 11.8008 27.9111 11.9404C27.8524 12.08 27.7663 12.2068 27.6578 12.3136Z" fill="black"/>
</svg>
