<svg width="217" height="23" viewBox="0 0 217 23" fill="none" xmlns="http://www.w3.org/2000/svg">
<path d="M0.0960122 22.3999C0.202679 22.2079 0.298679 21.9839 0.384012 21.7279C0.448012 21.4932 0.501346 21.2052 0.544012 20.8639C0.608012 20.5226 0.640012 20.1172 0.640012 19.6479V2.8159C0.640012 2.32523 0.608012 1.90923 0.544012 1.5679C0.480012 1.22657 0.405346 0.938567 0.320012 0.703901C0.234679 0.426568 0.128012 0.191901 1.2219e-05 -9.91821e-05H10.24C11.456 -9.91821e-05 12.576 0.159901 13.6 0.4799C14.6453 0.799901 15.5413 1.25857 16.288 1.8559C17.0347 2.45323 17.6107 3.1679 18.016 3.9999C18.4427 4.8319 18.656 5.7599 18.656 6.7839C18.656 8.72523 18.112 10.2932 17.024 11.4879C15.9573 12.6612 14.2507 13.4186 11.904 13.7599L15.488 19.5839C15.7867 20.0532 16.064 20.4692 16.32 20.8319C16.5973 21.1732 16.8533 21.4612 17.088 21.6959C17.3653 21.9732 17.6213 22.2079 17.856 22.3999H13.632C13.632 22.2079 13.6 21.9732 13.536 21.6959C13.472 21.4612 13.3653 21.1732 13.216 20.8319C13.0667 20.4692 12.8427 20.0532 12.544 19.5839L9.12001 13.9839H3.45601V19.6799C3.45601 20.1492 3.48801 20.5546 3.55201 20.8959C3.61601 21.2159 3.69068 21.4932 3.77601 21.7279C3.86135 22.0052 3.96801 22.2292 4.09601 22.3999H0.0960122ZM3.45601 13.3439H8.03201C9.12001 13.3439 10.1333 13.2586 11.072 13.0879C12.0107 12.9172 12.832 12.5972 13.536 12.1279C14.24 11.6372 14.784 10.9652 15.168 10.1119C15.5733 9.25857 15.776 8.1599 15.776 6.8159C15.776 5.7279 15.5733 4.7999 15.168 4.0319C14.7627 3.2639 14.2293 2.64524 13.568 2.1759C12.928 1.68523 12.2027 1.33323 11.392 1.1199C10.6027 0.885234 9.80268 0.7679 8.99201 0.7679H3.64801C3.60535 0.938567 3.56268 1.23723 3.52001 1.6639C3.47735 2.06924 3.45601 2.45323 3.45601 2.8159V13.3439ZM22.522 19.5839C22.2873 20.2239 22.1273 20.7359 22.042 21.1199C21.978 21.4826 21.9673 21.7599 22.01 21.9519C22.0313 22.1866 22.106 22.3359 22.234 22.3999H20.25C20.3993 22.3359 20.57 22.1866 20.762 21.9519C20.9113 21.7599 21.0927 21.4826 21.306 21.1199C21.5193 20.7359 21.754 20.2239 22.01 19.5839L29.626 -9.91821e-05H30.874L38.362 19.5839C38.5967 20.2026 38.8207 20.6932 39.034 21.0559C39.2473 21.4186 39.4287 21.7066 39.578 21.9199C39.77 22.1546 39.9407 22.3146 40.09 22.3999H35.77C35.898 22.2932 35.9727 22.1226 35.994 21.8879C36.0367 21.6746 36.026 21.3866 35.962 21.0239C35.9193 20.6612 35.7807 20.1812 35.546 19.5839L34.01 15.6479H24.058L22.522 19.5839ZM24.218 15.2959H33.85L29.146 2.6879L24.218 15.2959ZM41.8148 22.3999C41.9214 22.2079 42.0174 21.9839 42.1028 21.7279C42.1668 21.4932 42.2201 21.2052 42.2628 20.8639C42.3268 20.5226 42.3588 20.1172 42.3588 19.6479V2.8159C42.3588 2.32523 42.3268 1.90923 42.2628 1.5679C42.1988 1.22657 42.1241 0.938567 42.0388 0.703901C41.9534 0.426568 41.8468 0.191901 41.7188 -9.91821e-05H51.9588C53.1748 -9.91821e-05 54.2948 0.159901 55.3188 0.4799C56.3641 0.799901 57.2601 1.25857 58.0068 1.8559C58.7534 2.45323 59.3294 3.1679 59.7348 3.9999C60.1614 4.8319 60.3748 5.7599 60.3748 6.7839C60.3748 8.72523 59.8308 10.2932 58.7428 11.4879C57.6761 12.6612 55.9694 13.4186 53.6228 13.7599L57.2068 19.5839C57.5054 20.0532 57.7828 20.4692 58.0388 20.8319C58.3161 21.1732 58.5721 21.4612 58.8068 21.6959C59.0841 21.9732 59.3401 22.2079 59.5748 22.3999H55.3508C55.3508 22.2079 55.3188 21.9732 55.2548 21.6959C55.1908 21.4612 55.0841 21.1732 54.9348 20.8319C54.7854 20.4692 54.5614 20.0532 54.2628 19.5839L50.8388 13.9839H45.1748V19.6799C45.1748 20.1492 45.2068 20.5546 45.2708 20.8959C45.3348 21.2159 45.4094 21.4932 45.4948 21.7279C45.5801 22.0052 45.6868 22.2292 45.8148 22.3999H41.8148ZM45.1748 13.3439H49.7508C50.8388 13.3439 51.8521 13.2586 52.7908 13.0879C53.7294 12.9172 54.5508 12.5972 55.2548 12.1279C55.9588 11.6372 56.5028 10.9652 56.8868 10.1119C57.2921 9.25857 57.4948 8.1599 57.4948 6.8159C57.4948 5.7279 57.2921 4.7999 56.8868 4.0319C56.4814 3.2639 55.9481 2.64524 55.2868 2.1759C54.6468 1.68523 53.9214 1.33323 53.1108 1.1199C52.3214 0.885234 51.5214 0.7679 50.7108 0.7679H45.3668C45.3241 0.938567 45.2814 1.23723 45.2388 1.6639C45.1961 2.06924 45.1748 2.45323 45.1748 2.8159V13.3439ZM61.9688 22.3999C62.0968 22.2719 62.2034 22.0906 62.2888 21.8559C62.3741 21.6212 62.4488 21.3226 62.5128 20.9599C62.5768 20.5972 62.6088 20.1386 62.6088 19.5839V2.7519C62.6088 2.1759 62.5768 1.70657 62.5128 1.3439C62.4488 0.981235 62.3741 0.703902 62.2888 0.511902C62.2034 0.277234 62.0968 0.106567 61.9688 -9.91821e-05H76.9768L77.5528 2.7519C77.3394 2.3679 76.9554 2.02657 76.4008 1.7279C75.9101 1.4719 75.2061 1.23723 74.2888 1.0239C73.3928 0.810568 72.1768 0.703901 70.6408 0.703901H65.6168C65.5741 0.874568 65.5314 1.17323 65.4888 1.5999C65.4461 2.00523 65.4248 2.37857 65.4248 2.7199V9.3439H67.3128C68.2088 9.3439 68.9021 9.26923 69.3928 9.1199C69.9048 8.94924 70.2781 8.77857 70.5128 8.6079C70.8114 8.39457 71.0034 8.14924 71.0888 7.8719V11.4239C71.0034 11.1466 70.8114 10.8906 70.5128 10.6559C70.2781 10.4639 69.9048 10.2932 69.3928 10.1439C68.9021 9.97323 68.2088 9.8879 67.3128 9.8879H65.4248V19.5839C65.4248 19.9679 65.4461 20.3732 65.4888 20.7999C65.5314 21.2266 65.5848 21.5252 65.6488 21.6959H70.6408C72.1554 21.6959 73.3608 21.5892 74.2568 21.3759C75.1528 21.1626 75.8461 20.9279 76.3368 20.6719C76.8914 20.3732 77.2861 20.0319 77.5208 19.6479L76.9768 22.3999H61.9688ZM87.1563 22.3999C87.2843 22.2719 87.3909 22.0906 87.4763 21.8559C87.5616 21.6212 87.6363 21.3226 87.7003 20.9599C87.7643 20.5972 87.7963 20.1386 87.7963 19.5839V2.7519C87.7963 2.1759 87.7643 1.70657 87.7003 1.3439C87.6363 0.981235 87.5616 0.703902 87.4763 0.511902C87.3909 0.277234 87.2843 0.106567 87.1563 -9.91821e-05H102.164L102.74 2.7519C102.527 2.3679 102.143 2.02657 101.588 1.7279C101.098 1.4719 100.394 1.23723 99.4763 1.0239C98.5803 0.810568 97.3643 0.703901 95.8283 0.703901H90.8043C90.7616 0.874568 90.7189 1.17323 90.6763 1.5999C90.6336 2.00523 90.6123 2.37857 90.6123 2.7199V9.3439H92.5003C93.3963 9.3439 94.0896 9.26923 94.5803 9.1199C95.0923 8.94924 95.4656 8.77857 95.7003 8.6079C95.9989 8.39457 96.1909 8.14924 96.2763 7.8719V11.4239C96.1909 11.1466 95.9989 10.8906 95.7003 10.6559C95.4656 10.4639 95.0923 10.2932 94.5803 10.1439C94.0896 9.97323 93.3963 9.8879 92.5003 9.8879H90.6123V19.5839C90.6123 19.9679 90.6336 20.3732 90.6763 20.7999C90.7189 21.2266 90.7723 21.5252 90.8363 21.6959H95.8283C97.3429 21.6959 98.5483 21.5892 99.4443 21.3759C100.34 21.1626 101.034 20.9279 101.524 20.6719C102.079 20.3732 102.474 20.0319 102.708 19.6479L102.164 22.3999H87.1563ZM104.344 22.3999C104.472 22.2719 104.578 22.0906 104.664 21.8559C104.749 21.6426 104.824 21.3546 104.888 20.9919C104.952 20.6292 104.984 20.1599 104.984 19.5839V2.7519C104.984 2.1759 104.952 1.71723 104.888 1.3759C104.824 1.01324 104.749 0.725235 104.664 0.511902C104.578 0.277234 104.472 0.106567 104.344 -9.91821e-05H108.472C108.45 0.0212339 108.408 0.0745672 108.344 0.159901C108.28 0.245234 108.205 0.383901 108.12 0.575901C108.034 0.767901 107.96 1.03457 107.896 1.3759C107.832 1.71723 107.8 2.16523 107.8 2.7199V19.5839C107.8 19.9466 107.821 20.3519 107.864 20.7999C107.906 21.2266 107.96 21.5252 108.024 21.6959H113.4C114.85 21.6959 116.013 21.5999 116.888 21.4079C117.784 21.2159 118.477 21.0026 118.968 20.7679C119.458 20.5332 119.789 20.3092 119.96 20.0959C120.13 19.8826 120.226 19.7546 120.248 19.7119L119.672 22.3999H104.344ZM121.844 22.3999C121.972 22.2719 122.078 22.0906 122.164 21.8559C122.249 21.6212 122.324 21.3226 122.388 20.9599C122.452 20.5972 122.484 20.1386 122.484 19.5839V2.7519C122.484 2.1759 122.452 1.70657 122.388 1.3439C122.324 0.981235 122.249 0.703902 122.164 0.511902C122.078 0.277234 121.972 0.106567 121.844 -9.91821e-05H136.852L137.428 2.7519C137.214 2.3679 136.83 2.02657 136.276 1.7279C135.785 1.4719 135.081 1.23723 134.164 1.0239C133.268 0.810568 132.052 0.703901 130.516 0.703901H125.492C125.449 0.874568 125.406 1.17323 125.364 1.5999C125.321 2.00523 125.3 2.37857 125.3 2.7199V9.3439H127.188C128.084 9.3439 128.777 9.26923 129.268 9.1199C129.78 8.94924 130.153 8.77857 130.388 8.6079C130.686 8.39457 130.878 8.14924 130.964 7.8719V11.4239C130.878 11.1466 130.686 10.8906 130.388 10.6559C130.153 10.4639 129.78 10.2932 129.268 10.1439C128.777 9.97323 128.084 9.8879 127.188 9.8879H125.3V19.5839C125.3 19.9679 125.321 20.3732 125.364 20.7999C125.406 21.2266 125.46 21.5252 125.524 21.6959H130.516C132.03 21.6959 133.236 21.5892 134.132 21.3759C135.028 21.1626 135.721 20.9279 136.212 20.6719C136.766 20.3732 137.161 20.0319 137.396 19.6479L136.852 22.3999H121.844ZM139.863 2.7519C139.863 2.19723 139.821 1.74923 139.735 1.4079C139.65 1.06657 139.554 0.789234 139.447 0.575901C139.319 0.319902 139.181 0.127902 139.031 -9.91821e-05H142.775L150.519 18.4639L158.455 -9.91821e-05H161.815C161.687 0.170568 161.581 0.394568 161.495 0.671902C161.41 0.906568 161.335 1.19457 161.271 1.5359C161.207 1.8559 161.175 2.25057 161.175 2.7199V19.5839C161.175 20.0532 161.207 20.4692 161.271 20.8319C161.335 21.1732 161.41 21.4612 161.495 21.6959C161.581 21.9732 161.687 22.2079 161.815 22.3999H157.719C157.847 22.2079 157.954 21.9732 158.039 21.6959C158.125 21.4612 158.199 21.1732 158.263 20.8319C158.327 20.4906 158.359 20.0746 158.359 19.5839V1.5359C158.359 1.55724 158.221 1.87723 157.943 2.4959C157.687 3.09323 157.346 3.89323 156.919 4.8959C156.514 5.87723 156.045 6.99723 155.511 8.2559C154.978 9.49324 154.434 10.7732 153.879 12.0959C152.599 15.1679 151.138 18.6452 149.495 22.5279C147.81 18.6452 146.306 15.1786 144.983 12.1279C144.407 10.8266 143.842 9.55723 143.287 8.3199C142.754 7.06124 142.274 5.9519 141.847 4.9919C141.421 4.01057 141.069 3.22123 140.791 2.6239C140.535 2.00524 140.407 1.68524 140.407 1.6639V19.5839C140.407 20.1386 140.439 20.5972 140.503 20.9599C140.567 21.3226 140.642 21.6212 140.727 21.8559C140.813 22.0906 140.919 22.2719 141.047 22.3999H139.191C139.319 22.2719 139.437 22.0906 139.543 21.8559C139.629 21.6212 139.703 21.3226 139.767 20.9599C139.831 20.5972 139.863 20.1386 139.863 19.5839V2.7519ZM163.188 22.3999C163.316 22.2719 163.422 22.0906 163.508 21.8559C163.593 21.6212 163.668 21.3226 163.732 20.9599C163.796 20.5972 163.828 20.1386 163.828 19.5839V2.7519C163.828 2.1759 163.796 1.70657 163.732 1.3439C163.668 0.981235 163.593 0.703902 163.508 0.511902C163.422 0.277234 163.316 0.106567 163.188 -9.91821e-05H178.196L178.772 2.7519C178.558 2.3679 178.174 2.02657 177.62 1.7279C177.129 1.4719 176.425 1.23723 175.508 1.0239C174.612 0.810568 173.396 0.703901 171.86 0.703901H166.836C166.793 0.874568 166.75 1.17323 166.708 1.5999C166.665 2.00523 166.644 2.37857 166.644 2.7199V9.3439H168.532C169.428 9.3439 170.121 9.26923 170.612 9.1199C171.124 8.94924 171.497 8.77857 171.732 8.6079C172.03 8.39457 172.222 8.14924 172.308 7.8719V11.4239C172.222 11.1466 172.03 10.8906 171.732 10.6559C171.497 10.4639 171.124 10.2932 170.612 10.1439C170.121 9.97323 169.428 9.8879 168.532 9.8879H166.644V19.5839C166.644 19.9679 166.665 20.3732 166.708 20.7999C166.75 21.2266 166.804 21.5252 166.868 21.6959H171.86C173.374 21.6959 174.58 21.5892 175.476 21.3759C176.372 21.1626 177.065 20.9279 177.556 20.6719C178.11 20.3732 178.505 20.0319 178.74 19.6479L178.196 22.3999H163.188ZM180.439 22.3999C180.567 22.2719 180.674 22.0906 180.759 21.8559C180.844 21.6212 180.919 21.3226 180.983 20.9599C181.047 20.5972 181.079 20.1386 181.079 19.5839V2.7519C181.079 2.21857 181.047 1.78123 180.983 1.4399C180.919 1.07723 180.834 0.789234 180.727 0.575901C180.62 0.341235 180.503 0.149235 180.375 -9.91821e-05H184.023L195.735 17.7279V2.6559C195.735 2.10124 195.703 1.65324 195.639 1.3119C195.575 0.970568 195.5 0.703902 195.415 0.511902C195.33 0.319902 195.255 0.191902 195.191 0.127901C195.127 0.0425676 195.095 -9.91821e-05 195.095 -9.91821e-05H196.951C196.823 0.106567 196.716 0.277234 196.631 0.511902C196.524 0.725235 196.439 1.01324 196.375 1.3759C196.311 1.71723 196.279 2.16523 196.279 2.7199V22.3999H195.735C193.132 18.4746 190.807 14.9546 188.759 11.8399C187.884 10.5172 187.031 9.22657 186.199 7.9679C185.367 6.6879 184.62 5.54657 183.959 4.5439C183.298 3.54123 182.754 2.73057 182.327 2.1119C181.922 1.4719 181.708 1.14123 181.687 1.1199C181.687 1.35457 181.676 1.74923 181.655 2.3039C181.655 2.85857 181.655 3.46657 181.655 4.1279C181.655 4.7679 181.655 5.39724 181.655 6.0159C181.655 6.63457 181.655 7.12524 181.655 7.4879V19.5839C181.655 20.1386 181.687 20.5972 181.751 20.9599C181.815 21.3226 181.89 21.6212 181.975 21.8559C182.06 22.0906 182.167 22.2719 182.295 22.3999H180.439ZM205.887 0.735901C204.287 0.757234 203.007 0.874568 202.047 1.0879C201.108 1.30124 200.393 1.52523 199.903 1.7599C199.305 2.03723 198.911 2.35723 198.719 2.7199L199.359 -9.91821e-05H215.679L216.287 2.7199C216.073 2.35723 215.679 2.03723 215.103 1.7599C214.612 1.52523 213.897 1.30124 212.959 1.0879C212.02 0.874568 210.751 0.757234 209.151 0.735901C209.087 0.906568 209.033 1.14123 208.991 1.4399C208.948 1.71723 208.927 2.1759 208.927 2.8159V19.6799C208.927 20.0426 208.959 20.3946 209.023 20.7359C209.087 21.0559 209.161 21.3439 209.247 21.5999C209.332 21.8772 209.439 22.1439 209.567 22.3999H205.471C205.599 22.1652 205.705 21.8986 205.791 21.5999C205.876 21.3652 205.951 21.0772 206.015 20.7359C206.079 20.3946 206.111 20.0426 206.111 19.6799V2.8159C206.111 2.19723 206.089 1.73857 206.047 1.4399C206.004 1.14123 205.951 0.906568 205.887 0.735901Z" fill="white"/>
</svg>
